<svg xmlns="http://www.w3.org/2000/svg" viewBox="0 0 1440 320"><path fill=" #121212" fill-opacity="1" d="M0,128L17.1,154.7C34.3,181,69,235,103,224C137.1,213,171,139,206,133.3C240,128,274,192,309,186.7C342.9,181,377,107,411,85.3C445.7,64,480,96,514,144C548.6,192,583,256,617,288C651.4,320,686,320,720,320C754.3,320,789,320,823,304C857.1,288,891,256,926,229.3C960,203,994,181,1029,176C1062.9,171,1097,181,1131,181.3C1165.7,181,1200,171,1234,170.7C1268.6,171,1303,181,1337,181.3C1371.4,181,1406,171,1423,165.3L1440,160L1440,0L1422.9,0C1405.7,0,1371,0,1337,0C1302.9,0,1269,0,1234,0C1200,0,1166,0,1131,0C1097.1,0,1063,0,1029,0C994.3,0,960,0,926,0C891.4,0,857,0,823,0C788.6,0,754,0,720,0C685.7,0,651,0,617,0C582.9,0,549,0,514,0C480,0,446,0,411,0C377.1,0,343,0,309,0C274.3,0,240,0,206,0C171.4,0,137,0,103,0C68.6,0,34,0,17,0L0,0Z"></path></svg>